<svg width="152" height="39" viewBox="0 0 152 39" fill="none" xmlns="http://www.w3.org/2000/svg">
<rect width="152" height="39" rx="9.23529" fill="#E98F25"/>
<path d="M19.196 28.132C18.0373 28.132 16.9667 27.9413 15.984 27.56C15.0013 27.164 14.1507 26.614 13.432 25.91C12.7133 25.206 12.1487 24.3773 11.738 23.424C11.342 22.4707 11.144 21.4293 11.144 20.3C11.144 19.1707 11.342 18.1293 11.738 17.176C12.1487 16.2227 12.7133 15.394 13.432 14.69C14.1653 13.986 15.0233 13.4433 16.006 13.062C16.9887 12.666 18.0593 12.468 19.218 12.468C20.3327 12.468 21.3813 12.6587 22.364 13.04C23.3467 13.4067 24.1753 13.964 24.85 14.712L23.816 15.746C23.1853 15.1007 22.4887 14.6387 21.726 14.36C20.9633 14.0667 20.142 13.92 19.262 13.92C18.338 13.92 17.48 14.0813 16.688 14.404C15.896 14.712 15.2067 15.1593 14.62 15.746C14.0333 16.318 13.5713 16.9927 13.234 17.77C12.9113 18.5327 12.75 19.376 12.75 20.3C12.75 21.224 12.9113 22.0747 13.234 22.852C13.5713 23.6147 14.0333 24.2893 14.62 24.876C15.2067 25.448 15.896 25.8953 16.688 26.218C17.48 26.526 18.338 26.68 19.262 26.68C20.142 26.68 20.9633 26.5333 21.726 26.24C22.4887 25.9467 23.1853 25.4773 23.816 24.832L24.85 25.866C24.1753 26.614 23.3467 27.1787 22.364 27.56C21.3813 27.9413 20.3253 28.132 19.196 28.132ZM34.7302 28.132C33.5716 28.132 32.4936 27.9413 31.4962 27.56C30.5136 27.164 29.6556 26.614 28.9222 25.91C28.2036 25.1913 27.6389 24.3627 27.2282 23.424C26.8322 22.4707 26.6342 21.4293 26.6342 20.3C26.6342 19.1707 26.8322 18.1367 27.2282 17.198C27.6389 16.2447 28.2036 15.416 28.9222 14.712C29.6556 13.9933 30.5136 13.4433 31.4962 13.062C32.4789 12.666 33.5569 12.468 34.7302 12.468C35.8889 12.468 36.9596 12.666 37.9422 13.062C38.9249 13.4433 39.7756 13.986 40.4942 14.69C41.2276 15.394 41.7922 16.2227 42.1882 17.176C42.5989 18.1293 42.8042 19.1707 42.8042 20.3C42.8042 21.4293 42.5989 22.4707 42.1882 23.424C41.7922 24.3773 41.2276 25.206 40.4942 25.91C39.7756 26.614 38.9249 27.164 37.9422 27.56C36.9596 27.9413 35.8889 28.132 34.7302 28.132ZM34.7302 26.68C35.6542 26.68 36.5049 26.526 37.2822 26.218C38.0742 25.8953 38.7562 25.448 39.3282 24.876C39.9149 24.2893 40.3696 23.6147 40.6922 22.852C41.0149 22.0747 41.1762 21.224 41.1762 20.3C41.1762 19.376 41.0149 18.5327 40.6922 17.77C40.3696 16.9927 39.9149 16.318 39.3282 15.746C38.7562 15.1593 38.0742 14.712 37.2822 14.404C36.5049 14.0813 35.6542 13.92 34.7302 13.92C33.8062 13.92 32.9482 14.0813 32.1562 14.404C31.3642 14.712 30.6749 15.1593 30.0882 15.746C29.5162 16.318 29.0616 16.9927 28.7242 17.77C28.4016 18.5327 28.2402 19.376 28.2402 20.3C28.2402 21.2093 28.4016 22.0527 28.7242 22.83C29.0616 23.6073 29.5162 24.2893 30.0882 24.876C30.6749 25.448 31.3642 25.8953 32.1562 26.218C32.9482 26.526 33.8062 26.68 34.7302 26.68ZM46.4533 28V12.6H48.0813V26.592H56.7053V28H46.4533ZM56.9444 28L63.9844 12.6H65.5904L72.6304 28H70.9144L64.4464 13.546H65.1064L58.6384 28H56.9444ZM59.7164 23.886L60.2004 22.566H69.1544L69.6384 23.886H59.7164ZM75.1779 28V12.6H81.8219C83.5379 12.6 84.8653 12.9447 85.8039 13.634C86.7573 14.3233 87.2339 15.2987 87.2339 16.56C87.2339 17.396 87.0359 18.1 86.6399 18.672C86.2586 19.244 85.7306 19.6767 85.0559 19.97C84.3959 20.2633 83.6699 20.41 82.8779 20.41L83.2519 19.882C84.2346 19.882 85.0779 20.036 85.7819 20.344C86.5006 20.6373 87.0579 21.0847 87.4539 21.686C87.8499 22.2727 88.0479 23.006 88.0479 23.886C88.0479 25.1913 87.5639 26.2033 86.5959 26.922C85.6426 27.6407 84.1979 28 82.2619 28H75.1779ZM76.8059 26.658H82.2399C83.5893 26.658 84.6233 26.4307 85.3419 25.976C86.0606 25.5067 86.4199 24.766 86.4199 23.754C86.4199 22.7567 86.0606 22.0307 85.3419 21.576C84.6233 21.1067 83.5893 20.872 82.2399 20.872H76.6299V19.53H81.7119C82.9439 19.53 83.8973 19.2953 84.5719 18.826C85.2613 18.3567 85.6059 17.66 85.6059 16.736C85.6059 15.7973 85.2613 15.1007 84.5719 14.646C83.8973 14.1767 82.9439 13.942 81.7119 13.942H76.8059V26.658ZM98.4959 28.132C97.3372 28.132 96.2592 27.9413 95.2619 27.56C94.2792 27.164 93.4212 26.614 92.6879 25.91C91.9692 25.1913 91.4045 24.3627 90.9939 23.424C90.5979 22.4707 90.3999 21.4293 90.3999 20.3C90.3999 19.1707 90.5979 18.1367 90.9939 17.198C91.4045 16.2447 91.9692 15.416 92.6879 14.712C93.4212 13.9933 94.2792 13.4433 95.2619 13.062C96.2445 12.666 97.3225 12.468 98.4959 12.468C99.6545 12.468 100.725 12.666 101.708 13.062C102.691 13.4433 103.541 13.986 104.26 14.69C104.993 15.394 105.558 16.2227 105.954 17.176C106.365 18.1293 106.57 19.1707 106.57 20.3C106.57 21.4293 106.365 22.4707 105.954 23.424C105.558 24.3773 104.993 25.206 104.26 25.91C103.541 26.614 102.691 27.164 101.708 27.56C100.725 27.9413 99.6545 28.132 98.4959 28.132ZM98.4959 26.68C99.4199 26.68 100.271 26.526 101.048 26.218C101.84 25.8953 102.522 25.448 103.094 24.876C103.681 24.2893 104.135 23.6147 104.458 22.852C104.781 22.0747 104.942 21.224 104.942 20.3C104.942 19.376 104.781 18.5327 104.458 17.77C104.135 16.9927 103.681 16.318 103.094 15.746C102.522 15.1593 101.84 14.712 101.048 14.404C100.271 14.0813 99.4199 13.92 98.4959 13.92C97.5719 13.92 96.7139 14.0813 95.9219 14.404C95.1299 14.712 94.4405 15.1593 93.8539 15.746C93.2819 16.318 92.8272 16.9927 92.4899 17.77C92.1672 18.5327 92.0059 19.376 92.0059 20.3C92.0059 21.2093 92.1672 22.0527 92.4899 22.83C92.8272 23.6073 93.2819 24.2893 93.8539 24.876C94.4405 25.448 95.1299 25.8953 95.9219 26.218C96.7139 26.526 97.5719 26.68 98.4959 26.68ZM110.219 28V12.6H115.983C117.288 12.6 118.41 12.8127 119.349 13.238C120.288 13.6487 121.006 14.25 121.505 15.042C122.018 15.8193 122.275 16.7653 122.275 17.88C122.275 18.9653 122.018 19.904 121.505 20.696C121.006 21.4733 120.288 22.0747 119.349 22.5C118.41 22.9107 117.288 23.116 115.983 23.116H111.121L111.847 22.368V28H110.219ZM120.735 28L116.775 22.412H118.535L122.517 28H120.735ZM111.847 22.5L111.121 21.73H115.939C117.479 21.73 118.645 21.3927 119.437 20.718C120.244 20.0433 120.647 19.0973 120.647 17.88C120.647 16.648 120.244 15.6947 119.437 15.02C118.645 14.3453 117.479 14.008 115.939 14.008H111.121L111.847 13.238V22.5ZM123.653 28L130.693 12.6H132.299L139.339 28H137.623L131.155 13.546H131.815L125.347 28H123.653ZM126.425 23.886L126.909 22.566H135.863L136.347 23.886H126.425ZM130.077 11.346L133.091 8.618H135.181L131.617 11.346H130.077Z" fill="#E9E9E9"/>
</svg>
