<svg width="30" height="30" viewBox="0 0 30 30" fill="none" xmlns="http://www.w3.org/2000/svg">
<g clip-path="url(#clip0_2_79)">
<rect width="30" height="30" fill="#E98F25"/>
<path d="M29.918 8.82008C29.8477 7.22607 29.5899 6.1302 29.2206 5.18061C28.8397 4.17264 28.2537 3.27022 27.4858 2.52002C26.7356 1.75816 25.8273 1.16615 24.831 0.79117C23.8759 0.421912 22.7857 0.16414 21.1917 0.0938599C19.5858 0.0176273 19.076 0 15.0029 0C10.9299 0 10.4201 0.0176273 8.82008 0.0879078C7.22607 0.158188 6.1302 0.416188 5.18084 0.785218C4.17264 1.16615 3.27022 1.7522 2.52002 2.52002C1.75816 3.27022 1.16638 4.1786 0.79117 5.17488C0.421912 6.1302 0.16414 7.22011 0.0938599 8.81413C0.0176273 10.42 0 10.9299 0 15.0029C0 19.076 0.0176273 19.5858 0.0879078 21.1858C0.158188 22.7798 0.416188 23.8757 0.785447 24.8253C1.16638 25.8332 1.75816 26.7356 2.52002 27.4858C3.27022 28.2477 4.1786 28.8397 5.17489 29.2147C6.1302 29.584 7.22012 29.8417 8.81436 29.912C10.4141 29.9825 10.9241 29.9999 14.9972 29.9999C19.0703 29.9999 19.5801 29.9825 21.1801 29.912C22.7741 29.8417 23.8699 29.584 24.8193 29.2147C26.8355 28.4352 28.4295 26.8412 29.209 24.8253C29.578 23.8699 29.836 22.7798 29.9063 21.1858C29.9766 19.5858 29.9942 19.076 29.9942 15.0029C29.9942 10.9299 29.9882 10.42 29.918 8.82008ZM27.2164 21.0686C27.1518 22.5337 26.9057 23.3249 26.7006 23.8523C26.1965 25.1593 25.1593 26.1965 23.8523 26.7006C23.3249 26.9057 22.528 27.1518 21.0686 27.2162C19.4862 27.2867 19.0117 27.3041 15.0089 27.3041C11.0061 27.3041 10.5256 27.2867 8.94897 27.2162C7.48384 27.1518 6.69267 26.9057 6.16522 26.7006C5.51484 26.4602 4.92284 26.0793 4.44232 25.5812C3.94418 25.0947 3.56324 24.5086 3.32287 23.8583C3.11775 23.3308 2.87165 22.5337 2.80733 21.0745C2.73682 19.4922 2.71942 19.0174 2.71942 15.0146C2.71942 11.0118 2.73682 10.5313 2.80733 8.95492C2.87165 7.48979 3.11775 6.69862 3.32287 6.17117C3.56324 5.52056 3.94418 4.92879 4.44827 4.44804C4.93451 3.9499 5.52056 3.56896 6.17117 3.32882C6.69862 3.1237 7.49574 2.87761 8.95492 2.81305C10.5373 2.74277 11.0121 2.72514 15.0146 2.72514C19.0233 2.72514 19.4979 2.74277 21.0745 2.81305C22.5397 2.87761 23.3308 3.1237 23.8583 3.32882C24.5086 3.56896 25.1007 3.9499 25.5812 4.44804C26.0793 4.93451 26.4602 5.52056 26.7006 6.17117C26.9057 6.69862 27.1518 7.49551 27.2164 8.95492C27.2867 10.5373 27.3043 11.0118 27.3043 15.0146C27.3043 19.0174 27.2867 19.4862 27.2164 21.0686Z" fill="white"/>
<path d="M15.003 7.29639C10.7484 7.29639 7.29639 10.7481 7.29639 15.003C7.29639 19.2578 10.7484 22.7096 15.003 22.7096C19.2578 22.7096 22.7096 19.2578 22.7096 15.003C22.7096 10.7481 19.2578 7.29639 15.003 7.29639ZM15.003 20.002C12.2428 20.002 10.0039 17.7634 10.0039 15.003C10.0039 12.2426 12.2428 10.0039 15.003 10.0039C17.7634 10.0039 20.002 12.2426 20.002 15.003C20.002 17.7634 17.7634 20.002 15.003 20.002Z" fill="white"/>
<path d="M24.8136 6.99176C24.8136 7.9853 24.008 8.79089 23.0142 8.79089C22.0207 8.79089 21.2151 7.9853 21.2151 6.99176C21.2151 5.99799 22.0207 5.19263 23.0142 5.19263C24.008 5.19263 24.8136 5.99799 24.8136 6.99176Z" fill="white"/>
</g>
<defs>
<clipPath id="clip0_2_79">
<rect width="30" height="30" fill="white"/>
</clipPath>
</defs>
</svg>
