<svg width="40" height="40" viewBox="0 0 40 40" fill="none" xmlns="http://www.w3.org/2000/svg">
<g clip-path="url(#clip0_92_3)">
<path d="M40.0604 18.3351C40.0781 19.4808 40.0781 20.6022 40.0781 21.7603C39.9825 22.4354 40.0099 23.0828 39.892 23.7233C39.432 26.222 38.5483 28.5552 37.1977 30.7041C35.1346 33.9866 32.3655 36.4994 28.8809 38.2071C27.0826 39.0884 25.1876 39.6818 23.2051 39.9748C22.7578 40.0409 22.3001 40.0492 21.8211 40.0604C20.6755 40.0781 19.554 40.0781 18.396 40.0781C17.7207 39.9837 17.0735 40.0097 16.433 39.8918C13.8946 39.4245 11.5301 38.5186 9.35382 37.1345C6.04584 35.0306 3.53545 32.2093 1.84687 28.6706C1.01891 26.9355 0.46667 25.1086 0.178363 23.2059C0.133842 22.912 0.14644 22.6105 0.095825 22.2898C0.078125 20.8317 0.078125 19.3978 0.078125 17.9272C0.186929 17.0043 0.297523 16.1198 0.513115 15.2494C1.3071 12.0439 2.78303 9.18681 4.98252 6.73372C8.18457 3.16247 12.1575 0.947458 16.9131 0.188115C17.3733 0.114644 17.8437 0.112657 18.3352 0.095822C19.4808 0.078125 20.6022 0.078125 21.7603 0.078125C22.4354 0.173717 23.0828 0.146348 23.7233 0.26425C26.222 0.724207 28.5552 1.60797 30.7041 2.95856C33.9866 5.02166 36.4994 7.79079 38.2071 11.2754C39.0884 13.0737 39.6818 14.9686 39.9748 16.9512C40.0409 17.3984 40.0492 17.8561 40.0604 18.3351Z" fill="#E98F25"/>
<path d="M40.0781 18.3228C39.9051 18.0483 39.9828 17.6954 39.9386 17.3666C39.7379 15.8739 39.3595 14.4322 38.8476 13.0203C38.3274 11.5854 37.6202 10.242 36.7856 8.97209C36.2493 8.15606 35.6487 7.37745 34.9785 6.66174C33.8525 5.45939 32.6488 4.33894 31.2709 3.42967C30.044 2.61994 28.7515 1.92815 27.3719 1.39975C26.2789 0.981118 25.1626 0.64591 24.0196 0.416097C23.2979 0.270971 22.5663 0.136956 21.8094 0.109641C27.7809 0.0781178 33.7648 0.0807967 39.7488 0.0699188C40.037 0.0693949 40.0857 0.137297 40.0853 0.412262C40.0759 6.37021 40.0781 12.3282 40.0781 18.3228Z" fill="white"/>
<path d="M21.8335 40.0781C22.108 39.9051 22.4609 39.9828 22.7896 39.9386C24.2823 39.7379 25.7241 39.3595 27.1359 38.8476C28.5708 38.3274 29.9143 37.6202 31.1842 36.7856C32.0002 36.2493 32.7788 35.6487 33.4945 34.9785C34.6969 33.8525 35.8173 32.6488 36.7266 31.2709C37.5363 30.0439 38.2281 28.7515 38.7565 27.3719C39.1751 26.2789 39.5103 25.1626 39.7402 24.0196C39.8853 23.2979 40.0193 22.5663 40.0466 21.8094C40.0781 27.7809 40.0755 33.7648 40.0863 39.7488C40.0869 40.037 40.019 40.0857 39.744 40.0853C33.786 40.0759 27.8281 40.0781 21.8335 40.0781Z" fill="white"/>
<path d="M18.3228 0.078124C18.0487 0.251015 17.6961 0.17379 17.3678 0.217565C15.8762 0.416459 14.435 0.793154 13.0256 1.30622C11.5937 1.82751 10.2513 2.53196 8.98123 3.36636C8.18685 3.88826 7.42764 4.46829 6.72883 5.11413C5.49189 6.2573 4.34815 7.49182 3.41712 8.89918C2.61398 10.1132 1.9298 11.3965 1.40405 12.7606C0.979388 13.8625 0.658905 14.9944 0.406783 16.1447C0.282488 16.7118 0.225904 17.2937 0.108403 17.8798C0.078126 12.0628 0.0808969 6.23501 0.0698732 0.40722C0.069327 0.118418 0.138138 0.0706038 0.41249 0.0710325C6.37036 0.0803439 12.3283 0.078124 18.3228 0.078124Z" fill="white"/>
<path d="M0.0781239 22.3022C0.317825 22.7337 0.282121 23.2612 0.375666 23.7581C0.59475 24.9217 0.921412 26.0482 1.32257 27.159C1.8366 28.5823 2.54483 29.9063 3.3646 31.1706C3.86073 31.9357 4.41401 32.6678 5.02997 33.3383C6.56598 35.0102 8.28279 36.4635 10.2765 37.5792C12.007 38.5477 13.8466 39.2274 15.7683 39.6693C16.6051 39.8617 17.4632 40.0186 18.3469 40.0466C12.3755 40.0781 6.39155 40.0755 0.407666 40.0863C0.120098 40.0868 0.0704738 40.0198 0.0709259 39.7442C0.0804452 33.9424 0.0781239 28.1406 0.0781239 22.3022Z" fill="white"/>
<path d="M23.3832 23.1798C24.0741 23.2976 24.693 23.5498 25.3089 23.7927C26.6279 24.3129 27.8318 25.0475 28.9314 25.9357C30.1325 26.906 31.1281 28.0669 31.958 29.3738C32.4045 30.0769 32.7497 30.8272 33.0969 31.5788C33.1728 31.7432 33.1688 31.8747 33.0168 32.0339C31.4199 33.706 29.5964 35.0688 27.5011 36.0466C26.1107 36.6954 24.6499 37.1407 23.138 37.4271C21.6817 37.703 20.2096 37.7237 18.7472 37.638C16.9548 37.533 15.2259 37.0851 13.5456 36.4227C11.9856 35.8076 10.5739 34.9539 9.24559 33.9551C8.46264 33.3664 7.76697 32.6709 7.07754 31.9726C6.93681 31.8301 7.00466 31.7008 7.04632 31.6043C7.65384 30.1979 8.42599 28.8948 9.42069 27.7187C10.7322 26.1681 12.3159 24.9824 14.1365 24.1113C15.3298 23.5404 16.5873 23.1726 17.9002 22.9546C19.0209 22.7685 20.1408 22.7956 21.2587 22.83C21.9606 22.8517 22.6572 23.044 23.3832 23.1798Z" fill="white"/>
<path d="M13.962 19.0794C13.2406 17.7797 13.0096 16.3966 13.1365 14.9666C13.2399 13.8014 13.6399 12.7158 14.316 11.7485C15.0287 10.7289 15.9487 9.93303 17.0664 9.39918C18.346 8.78799 19.6986 8.62833 21.1134 8.81693C22.6866 9.02665 23.9987 9.73182 25.0812 10.8419C26.1048 11.8914 26.7603 13.1489 26.9612 14.6348C27.1557 16.0739 27.0101 17.4565 26.3575 18.7519C25.3235 20.8043 23.6657 22.1398 21.4099 22.5539C19.2832 22.9444 17.3104 22.4829 15.604 21.0506C14.9372 20.4909 14.4331 19.8251 13.962 19.0794Z" fill="white"/>
</g>
<defs>
<clipPath id="clip0_92_3">
<rect width="40" height="40" fill="white"/>
</clipPath>
</defs>
</svg>
